# Blender v2.79 (sub 4) OBJ File: 'a.blend'
# www.blender.org
mtllib a.mtl
o Plane_Plane.013
v -0.569502 0.361134 0.569502
v 0.569502 0.361134 0.569502
v -0.569502 0.361134 -0.569502
v 0.569502 0.361134 -0.569502
v -0.569502 0.897098 -0.569502
v -0.569502 0.897098 0.569502
v 0.569502 0.897098 0.569502
v 0.569502 0.897098 -0.569502
vt 0.137623 0.814697
vt 0.167623 0.216685
vt 0.767480 0.185303
vt 0.737479 0.783315
vt 0.905007 0.000095
vt 0.905007 0.911630
vt 0.000095 0.999905
vt 0.000095 0.088371
vn 0.0000 1.0000 0.0000
vn 0.0000 0.0000 -1.0000
vn 0.0000 0.0000 1.0000
vn 1.0000 0.0000 0.0000
vn -1.0000 0.0000 0.0000
usemtl None
s off
f 6/1/1 7/2/1 8/3/1 5/4/1
f 4/5/2 3/6/2 5/4/2 8/3/2
f 1/7/3 2/8/3 7/2/3 6/1/3
f 2/8/4 4/5/4 8/3/4 7/2/4
f 3/6/5 1/7/5 6/1/5 5/4/5
