# Blender v2.79 (sub 4) OBJ File: ''
# www.blender.org
mtllib a.mtl
o Plane.001_Plane.000
v -1.709418 0.000000 -5.457463
v -1.709418 0.000000 -2.024117
v -1.709418 -0.500000 -2.024117
v -1.709418 -0.500000 -5.457463
v -5.913276 -0.000000 4.324021
v -5.913276 -0.000000 7.757369
v -5.913276 -0.500000 7.757369
v -5.913276 -0.500000 4.324021
v -2.479928 -0.000000 7.757369
v -2.479928 -0.000000 4.324021
v 7.006636 -0.500001 27.031139
v -2.218800 -0.500001 27.031139
v -3.366178 -0.500001 30.464485
v 7.006636 -0.500001 30.464485
v -2.479928 -0.500000 7.757369
v -2.479928 -0.500000 4.324021
v 1.781818 -0.500000 10.499334
v 5.215165 -0.500000 10.499334
v 5.215165 -0.500000 7.065987
v 1.781818 -0.500000 7.065987
v 1.723929 -0.500000 -2.024117
v 1.723929 -0.500000 -5.457463
v 1.723929 0.000000 -2.024117
v 1.723929 0.000000 -5.457463
v 1.781818 -0.000000 7.065987
v 1.781818 -0.000000 10.499334
v 5.215165 -0.000000 10.499334
v 5.215165 -0.000000 7.065987
v 7.006636 -0.000001 30.464485
v 7.006636 -0.000001 27.031139
v -2.218800 -0.000001 27.031139
v -3.366178 -0.000001 30.464485
vt 0.266640 -0.693967
vt -0.483360 -0.693967
vt -0.483360 -0.839597
vt 0.266640 -0.839597
vt -2.435566 -0.693967
vt -3.185565 -0.693967
vt -3.185565 -0.839597
vt -2.435566 -0.839597
vt -1.293270 -4.414087
vt -0.543270 -4.414087
vt -0.543270 -3.414088
vt -1.293270 -3.414088
vt 1.020347 -2.034460
vt 0.353308 -2.034460
vt 0.270347 -2.365455
vt 1.020347 -2.365455
vt -1.293270 -4.414087
vt -0.543270 -4.414087
vt -0.543270 -3.414088
vt -1.293270 -3.414088
vt 0.433479 -4.458739
vt 1.183479 -4.458739
vt 1.183479 -3.458739
vt 0.433479 -3.458739
vt -0.329166 -0.811146
vt 0.420834 -0.811146
vt 0.420834 0.188854
vt -0.329166 0.188854
vt -1.293270 -0.693967
vt -0.543270 -0.693967
vt -0.543270 -0.839597
vt -1.293270 -0.839597
vt -0.329166 -0.693967
vt 0.420834 -0.693967
vt 0.420834 -0.839597
vt -0.329166 -0.839597
vt -3.185565 -0.693967
vt -2.435566 -0.693967
vt -2.435566 -0.839597
vt -3.185565 -0.839597
vt -0.483360 -0.693967
vt 0.266640 -0.693967
vt 0.266640 -0.839597
vt -0.483360 -0.839597
vt -0.543270 -0.693967
vt -1.293270 -0.693967
vt -1.293270 -0.839597
vt -0.543270 -0.839597
vt 0.420834 -0.693967
vt -0.329166 -0.693967
vt -0.329166 -0.839597
vt 0.420834 -0.839597
vt -2.469054 -0.693967
vt -3.219054 -0.693967
vt -3.219054 -0.839597
vt -2.469054 -0.839597
vt 0.433479 -0.693967
vt 1.183479 -0.693967
vt 1.183479 -0.839597
vt 0.433479 -0.839597
vt -3.219054 -0.693967
vt -2.469054 -0.693967
vt -2.469054 -0.839597
vt -3.219054 -0.839597
vt 1.183479 -0.693967
vt 0.433479 -0.693967
vt 0.433479 -0.839597
vt 1.183479 -0.839597
vt 0.433479 -3.458739
vt 1.183479 -3.458739
vt 1.183479 -4.458739
vt 0.433479 -4.458739
vt -1.649091 0.104803
vt -1.400845 0.104803
vt -1.400845 0.056600
vt -1.649091 0.056600
vt -0.329166 0.188854
vt 0.420834 0.188854
vt 0.420834 -0.811146
vt -0.329166 -0.811146
vt 1.020347 0.104803
vt 0.353308 0.104803
vt 0.353308 0.056600
vt 1.020347 0.056600
vt -1.400845 0.104803
vt -1.649091 0.104803
vt -1.649091 0.056600
vt -1.400845 0.056600
vt 0.270347 0.104803
vt 1.020347 0.104803
vt 1.020347 0.056600
vt 0.270347 0.056600
vt 1.020347 -2.365455
vt 0.270347 -2.365455
vt 0.353308 -2.034460
vt 1.020347 -2.034460
vn 1.0000 0.0000 0.0000
vn 0.0000 1.0000 0.0000
vn 0.0000 0.0000 -1.0000
vn -1.0000 0.0000 0.0000
vn 0.0000 0.0000 1.0000
vn 0.0000 -1.0000 -0.0000
vn 0.9484 0.0000 0.3170
usemtl None_stone0-blue.jpg
s 1
f 1/1/1 2/2/1 3/3/1 4/4/1
f 5/5/1 6/6/1 7/7/1 8/8/1
f 6/9/2 9/10/2 10/11/2 5/12/2
f 11/13/2 12/14/2 13/15/2 14/16/2
f 7/17/2 15/18/2 16/19/2 8/20/2
f 17/21/2 18/22/2 19/23/2 20/24/2
f 3/25/2 21/26/2 22/27/2 4/28/2
f 6/29/3 9/30/3 15/31/3 7/32/3
f 2/33/3 23/34/3 21/35/3 3/36/3
f 9/37/4 10/38/4 16/39/4 15/40/4
f 23/41/4 24/42/4 22/43/4 21/44/4
f 10/45/5 5/46/5 8/47/5 16/48/5
f 24/49/5 1/50/5 4/51/5 22/52/5
f 25/53/1 26/54/1 17/55/1 20/56/1
f 26/57/3 27/58/3 18/59/3 17/60/3
f 27/61/4 28/62/4 19/63/4 18/64/4
f 28/65/5 25/66/5 20/67/5 19/68/5
f 25/69/6 28/70/6 27/71/6 26/72/6
f 29/73/4 30/74/4 11/75/4 14/76/4
f 1/77/6 24/78/6 23/79/6 2/80/6
f 30/81/5 31/82/5 12/83/5 11/84/5
f 31/85/7 32/86/7 13/87/7 12/88/7
f 32/89/3 29/90/3 14/91/3 13/92/3
f 29/93/6 32/94/6 31/95/6 30/96/6
