# Blender v2.79 (sub 4) OBJ File: ''
# www.blender.org
mtllib a.mtl
o Plane.001_Plane.000
v 1.781818 -0.000000 7.065987
v 1.781818 -0.000000 10.499334
v 5.686875 -0.000001 22.956602
v -1.151057 -0.000001 22.956602
v 5.215165 -0.000000 7.065987
v -6.122886 -0.500000 10.346031
v -6.122886 -0.500000 6.912683
v -2.689539 -0.500000 10.346031
v -6.122886 -0.000000 10.346031
v -2.689539 -0.000000 10.346031
v 5.215165 -0.500000 7.065987
v 1.723929 -0.500000 -2.024117
v 1.723929 -0.500000 -5.457463
v -1.709418 0.000000 -5.457463
v -1.709418 -0.500000 -5.457463
v 1.781818 -0.500000 10.499334
v 1.781818 -0.500000 7.065987
v 1.723929 0.000000 -5.457463
v -2.298435 -0.500001 26.389948
v 5.686875 -0.500001 26.389948
v 5.215165 -0.000000 10.499334
v -1.709418 -0.500000 -2.024117
v 1.723929 0.000000 -2.024117
v -2.689539 -0.000000 6.912683
v -2.689539 -0.500000 6.912683
v 5.686875 -0.500001 22.956602
v -1.709418 0.000000 -2.024117
v 5.686875 -0.000001 26.389948
v -2.298435 -0.000001 26.389948
v 5.215165 -0.500000 10.499334
v -1.151057 -0.500001 22.956602
v -6.122886 -0.000000 6.912683
vt 0.266640 -0.693967
vt -0.483360 -0.693967
vt -0.483360 -0.839597
vt 0.266640 -0.839597
vt -2.435566 -0.693967
vt -3.185565 -0.693967
vt -3.185565 -0.839597
vt -2.435566 -0.839597
vt -1.293270 -4.414087
vt -0.543270 -4.414087
vt -0.543270 -3.414088
vt -1.293270 -3.414088
vt 1.020347 -2.034460
vt 0.353308 -2.034460
vt 0.270347 -2.365455
vt 1.020347 -2.365455
vt -1.293270 -4.414087
vt -0.543270 -4.414087
vt -0.543270 -3.414088
vt -1.293270 -3.414088
vt 0.433479 -4.458739
vt 1.183479 -4.458739
vt 1.183479 -3.458739
vt 0.433479 -3.458739
vt -0.329166 -0.811146
vt 0.420834 -0.811146
vt 0.420834 0.188854
vt -0.329166 0.188854
vt -1.293270 -0.693967
vt -0.543270 -0.693967
vt -0.543270 -0.839597
vt -1.293270 -0.839597
vt -0.329166 -0.693967
vt 0.420834 -0.693967
vt 0.420834 -0.839597
vt -0.329166 -0.839597
vt -3.185565 -0.693967
vt -2.435566 -0.693967
vt -2.435566 -0.839597
vt -3.185565 -0.839597
vt -0.483360 -0.693967
vt 0.266640 -0.693967
vt 0.266640 -0.839597
vt -0.483360 -0.839597
vt -0.543270 -0.693967
vt -1.293270 -0.693967
vt -1.293270 -0.839597
vt -0.543270 -0.839597
vt 0.420834 -0.693967
vt -0.329166 -0.693967
vt -0.329166 -0.839597
vt 0.420834 -0.839597
vt -2.469054 -0.693967
vt -3.219054 -0.693967
vt -3.219054 -0.839597
vt -2.469054 -0.839597
vt 0.433479 -0.693967
vt 1.183479 -0.693967
vt 1.183479 -0.839597
vt 0.433479 -0.839597
vt -3.219054 -0.693967
vt -2.469054 -0.693967
vt -2.469054 -0.839597
vt -3.219054 -0.839597
vt 1.183479 -0.693967
vt 0.433479 -0.693967
vt 0.433479 -0.839597
vt 1.183479 -0.839597
vt 0.433479 -3.458739
vt 1.183479 -3.458739
vt 1.183479 -4.458739
vt 0.433479 -4.458739
vt -1.649091 0.104803
vt -1.400845 0.104803
vt -1.400845 0.056600
vt -1.649091 0.056600
vt -0.329166 0.188854
vt 0.420834 0.188854
vt 0.420834 -0.811146
vt -0.329166 -0.811146
vt 1.020347 0.104803
vt 0.353308 0.104803
vt 0.353308 0.056600
vt 1.020347 0.056600
vt -1.400845 0.104803
vt -1.649091 0.104803
vt -1.649091 0.056600
vt -1.400845 0.056600
vt 0.270347 0.104803
vt 1.020347 0.104803
vt 1.020347 0.056600
vt 0.270347 0.056600
vt 1.020347 -2.365455
vt 0.270347 -2.365455
vt 0.353308 -2.034460
vt 1.020347 -2.034460
vn 1.0000 0.0000 0.0000
vn 0.0000 1.0000 0.0000
vn 0.0000 0.0000 -1.0000
vn -1.0000 0.0000 0.0000
vn 0.0000 0.0000 1.0000
vn 0.0000 -1.0000 -0.0000
vn 0.9484 0.0000 0.3170
usemtl None_stone0-blue.jpg
s 1
f 14/1/1 27/2/1 22/3/1 15/4/1
f 32/5/1 9/6/1 6/7/1 7/8/1
f 9/9/2 10/10/2 24/11/2 32/12/2
f 26/13/2 31/14/2 19/15/2 20/16/2
f 6/17/2 8/18/2 25/19/2 7/20/2
f 16/21/2 30/22/2 11/23/2 17/24/2
f 22/25/2 12/26/2 13/27/2 15/28/2
f 9/29/3 10/30/3 8/31/3 6/32/3
f 27/33/3 23/34/3 12/35/3 22/36/3
f 10/37/4 24/38/4 25/39/4 8/40/4
f 23/41/4 18/42/4 13/43/4 12/44/4
f 24/45/5 32/46/5 7/47/5 25/48/5
f 18/49/5 14/50/5 15/51/5 13/52/5
f 1/53/1 2/54/1 16/55/1 17/56/1
f 2/57/3 21/58/3 30/59/3 16/60/3
f 21/61/4 5/62/4 11/63/4 30/64/4
f 5/65/5 1/66/5 17/67/5 11/68/5
f 1/69/6 5/70/6 21/71/6 2/72/6
f 28/73/4 3/74/4 26/75/4 20/76/4
f 14/77/6 18/78/6 23/79/6 27/80/6
f 3/81/5 4/82/5 31/83/5 26/84/5
f 4/85/7 29/86/7 19/87/7 31/88/7
f 29/89/3 28/90/3 20/91/3 19/92/3
f 28/93/6 29/94/6 4/95/6 3/96/6
