# Blender v2.79 (sub 4) OBJ File: 'a.blend'
# www.blender.org
mtllib a.mtl
o Plane_Plane.004
v -0.569502 0.690898 0.569502
v 0.569502 0.690898 0.569502
v 0.569502 0.690898 -0.569502
v -0.569502 0.690898 -0.569502
v 0.569502 0.361134 -0.569502
v -0.569502 0.361134 -0.569502
v -0.569502 0.361134 0.569502
v 0.569502 0.361134 0.569502
vt 0.535172 0.500000
vt 0.000000 0.500000
vt 0.000000 0.000000
vt 0.535172 0.000000
vt 1.000000 0.000000
vt 1.000000 0.500000
vt 0.845057 0.500000
vt 0.845057 0.000000
vt 0.690115 0.500000
vt 0.690115 0.000000
vt 0.845057 0.000000
vt 0.845057 0.500000
vt 0.000000 1.000000
vt 0.000000 0.500000
vt 0.154943 0.500000
vt 0.154943 1.000000
vt 0.535172 0.500000
vt 0.535172 0.000000
vt 0.690114 0.000000
vt 0.690115 0.500000
vn 0.0000 1.0000 0.0000
vn 0.0000 0.0000 -1.0000
vn 0.0000 -0.0000 1.0000
vn 1.0000 0.0000 0.0000
vn -1.0000 0.0000 0.0000
usemtl None.005
s 1
f 1/1/1 2/2/1 3/3/1 4/4/1
f 5/5/2 6/6/2 4/7/2 3/8/2
f 7/9/3 8/10/3 2/11/3 1/12/3
f 8/13/4 5/14/4 3/15/4 2/16/4
f 6/17/5 7/18/5 1/19/5 4/20/5
