# Blender v2.79 (sub 4) OBJ File: ''
# www.blender.org
mtllib a.mtl
o Plane.001_Plane.003
v -5.330676 -0.438122 -5.263687
v -1.897329 -0.438122 -5.263687
v -1.897329 -0.438122 -8.697034
v -5.330676 -0.438122 -8.697034
v -14.130877 -0.500001 18.147963
v -4.905444 -0.500001 18.147963
v -3.758065 -0.500001 14.714617
v -14.130877 -0.500001 14.714617
v -8.095936 -0.500002 43.154869
v -4.662589 -0.500002 43.154869
v -4.662589 -0.500001 33.151951
v -8.095936 -0.500001 33.151951
v -2.134514 -0.500000 10.408182
v 1.298833 -0.500000 10.408182
v 1.298833 -0.500000 6.974836
v -2.134514 -0.500000 6.974836
v -2.134514 -0.000000 6.974836
v -2.134514 -0.000000 10.408182
v 1.298833 -0.000000 10.408182
v 1.298833 -0.000000 6.974836
v -5.330676 0.061878 -8.697034
v -5.330676 0.061878 -5.263687
v -8.095936 -0.000001 33.151951
v -8.095936 -0.000002 43.154869
v -1.897329 0.061878 -5.263687
v -4.662589 -0.000002 43.154869
v -1.897329 0.061878 -8.697034
v -4.662589 -0.000001 33.151951
v -14.130877 -0.000001 14.714617
v -14.130877 -0.000001 18.147963
v -4.905444 -0.000001 18.147963
v -3.758065 -0.000001 14.714617
vt -1.120215 0.132415
vt -0.370215 0.132415
vt -0.370215 1.132415
vt -1.120215 1.132415
vt -0.830322 -2.445575
vt -0.163283 -2.445575
vt -0.080322 -2.114580
vt -0.830322 -2.114580
vt 0.371287 1.000000
vt 0.628713 1.000000
vt 0.628713 -0.000000
vt 0.371287 -0.000000
vt -0.422027 -4.432190
vt 0.327973 -4.432190
vt 0.327973 -3.432190
vt -0.422027 -3.432190
vt -2.449143 -0.693967
vt -3.199142 -0.693967
vt -3.199142 -0.839597
vt -2.449143 -0.839597
vt -0.422027 -0.693967
vt 0.327973 -0.693967
vt 0.327973 -0.839597
vt -0.422027 -0.839597
vt -3.199142 -0.693967
vt -2.449143 -0.693967
vt -2.449143 -0.839597
vt -3.199142 -0.839597
vt 0.327973 -0.693967
vt -0.422027 -0.693967
vt -0.422027 -0.839597
vt 0.327973 -0.839597
vt 0.974311 -0.675944
vt 0.224311 -0.675944
vt 0.224311 -0.821574
vt 0.974311 -0.821574
vt 0.518745 -0.000000
vt 0.518745 1.000000
vt 0.481255 1.000000
vt 0.481255 -0.000000
vt -1.120215 -0.675944
vt -0.370215 -0.675944
vt -0.370215 -0.821574
vt -1.120215 -0.821574
vt 0.371287 0.524993
vt 0.628713 0.524993
vt 0.628713 0.475007
vt 0.371287 0.475007
vt 0.224311 -0.675944
vt 0.974311 -0.675944
vt 0.974311 -0.821574
vt 0.224311 -0.821574
vt 0.518745 1.000000
vt 0.518745 -0.000000
vt 0.481255 -0.000000
vt 0.481255 1.000000
vt -0.370215 -0.675944
vt -1.120215 -0.675944
vt -1.120215 -0.821574
vt -0.370215 -0.821574
vt 0.628713 0.524993
vt 0.371287 0.524993
vt 0.371287 0.475007
vt 0.628713 0.475007
vt -1.120215 1.132415
vt -0.370215 1.132415
vt -0.370215 0.132415
vt -1.120215 0.132415
vt -1.460935 0.104803
vt -1.709181 0.104803
vt -1.709181 0.056600
vt -1.460935 0.056600
vt -0.830322 0.104803
vt -0.163283 0.104803
vt -0.163283 0.056600
vt -0.830322 0.056600
vt -1.709181 0.104803
vt -1.460935 0.104803
vt -1.460935 0.056600
vt -1.709181 0.056600
vt -0.080322 0.104803
vt -0.830322 0.104803
vt -0.830322 0.056600
vt -0.080322 0.056600
vt -0.422027 -3.432190
vt 0.327973 -3.432190
vt 0.327973 -4.432190
vt -0.422027 -4.432190
vt -0.830322 -2.114580
vt -0.080322 -2.114580
vt -0.163283 -2.445575
vt -0.830322 -2.445575
vt 0.371287 -0.000000
vt 0.628713 -0.000000
vt 0.628713 1.000000
vt 0.371287 1.000000
vn 0.0000 1.0000 0.0000
vn 1.0000 0.0000 0.0000
vn 0.0000 0.0000 -1.0000
vn -1.0000 0.0000 0.0000
vn 0.0000 0.0000 1.0000
vn 0.0000 -1.0000 -0.0000
vn -0.9484 0.0000 -0.3170
usemtl None
s 1
f 1/1/1 2/2/1 3/3/1 4/4/1
f 5/5/1 6/6/1 7/7/1 8/8/1
f 9/9/1 10/10/1 11/11/1 12/12/1
f 13/13/1 14/14/1 15/15/1 16/16/1
f 17/17/2 18/18/2 13/19/2 16/20/2
f 18/21/3 19/22/3 14/23/3 13/24/3
f 19/25/4 20/26/4 15/27/4 14/28/4
f 20/29/5 17/30/5 16/31/5 15/32/5
f 21/33/2 22/34/2 1/35/2 4/36/2
f 23/37/2 24/38/2 9/39/2 12/40/2
f 22/41/3 25/42/3 2/43/3 1/44/3
f 24/45/3 26/46/3 10/47/3 9/48/3
f 25/49/4 27/50/4 3/51/4 2/52/4
f 26/53/4 28/54/4 11/55/4 10/56/4
f 27/57/5 21/58/5 4/59/5 3/60/5
f 28/61/5 23/62/5 12/63/5 11/64/5
f 21/65/6 27/66/6 25/67/6 22/68/6
f 29/69/2 30/70/2 5/71/2 8/72/2
f 30/73/3 31/74/3 6/75/3 5/76/3
f 31/77/7 32/78/7 7/79/7 6/80/7
f 32/81/5 29/82/5 8/83/5 7/84/5
f 17/85/6 20/86/6 19/87/6 18/88/6
f 29/89/6 32/90/6 31/91/6 30/92/6
f 23/93/6 28/94/6 26/95/6 24/96/6
