# Blender v2.79 (sub 4) OBJ File: 'a.blend'
# www.blender.org
mtllib a.mtl
o Plane.001_Plane.004_Plane.001_Plane.005
v -8.095936 -0.500002 36.585297
v -4.662589 -0.500002 36.585297
v -4.662589 -0.500001 33.151951
v -8.095936 -0.500001 33.151951
v -8.095936 -0.000001 33.151951
v -8.095936 -0.000002 36.585297
v -4.662589 -0.000002 36.585297
v -4.662589 -0.000001 33.151951
v -5.330676 -0.438122 -5.263687
v -1.897329 -0.438122 -5.263687
v -1.897329 -0.438122 -8.697034
v -5.330676 -0.438122 -8.697034
v -15.997042 -0.500001 24.028164
v -6.771608 -0.500001 24.028164
v -5.624229 -0.500001 20.594818
v -15.997042 -0.500001 20.594818
v -2.134514 -0.500000 10.408182
v 1.298833 -0.500000 10.408182
v 1.298833 -0.500000 6.974836
v -2.134514 -0.500000 6.974836
v -2.134514 -0.000000 6.974836
v -2.134514 -0.000000 10.408182
v 1.298833 -0.000000 10.408182
v 1.298833 -0.000000 6.974836
v -5.330676 0.061878 -8.697034
v -5.330676 0.061878 -5.263687
v -1.897329 0.061878 -5.263687
v -1.897329 0.061878 -8.697034
v -15.997042 -0.000001 20.594818
v -15.997042 -0.000001 24.028164
v -6.771608 -0.000001 24.028164
v -5.624229 -0.000001 20.594818
vt -1.724274 -12.056563
vt -0.974274 -12.056563
vt -0.974274 -11.056563
vt -1.724274 -11.056563
vt -8.167422 -0.693967
vt -8.917422 -0.693967
vt -8.917422 -0.839597
vt -8.167422 -0.839597
vt -1.724274 -0.693967
vt -0.974274 -0.693967
vt -0.974274 -0.839597
vt -1.724274 -0.839597
vt -8.917422 -0.693967
vt -8.167422 -0.693967
vt -8.167422 -0.839597
vt -8.917422 -0.839597
vt -0.974274 -0.693967
vt -1.724274 -0.693967
vt -1.724274 -0.839597
vt -0.974274 -0.839597
vt -1.724274 -11.056563
vt -0.974274 -11.056563
vt -0.974274 -12.056563
vt -1.724274 -12.056563
vt -1.120215 0.132415
vt -0.370215 0.132415
vt -0.370215 1.132415
vt -1.120215 1.132415
vt -0.830322 -2.445575
vt -0.163283 -2.445575
vt -0.080322 -2.114580
vt -0.830322 -2.114580
vt -0.422027 -4.432190
vt 0.327973 -4.432190
vt 0.327973 -3.432190
vt -0.422027 -3.432190
vt -2.449143 -0.693967
vt -3.199142 -0.693967
vt -3.199142 -0.839597
vt -2.449143 -0.839597
vt -0.422027 -0.693967
vt 0.327973 -0.693967
vt 0.327973 -0.839597
vt -0.422027 -0.839597
vt -3.199142 -0.693967
vt -2.449143 -0.693967
vt -2.449143 -0.839597
vt -3.199142 -0.839597
vt 0.327973 -0.693967
vt -0.422027 -0.693967
vt -0.422027 -0.839597
vt 0.327973 -0.839597
vt 0.974311 -0.675944
vt 0.224311 -0.675944
vt 0.224311 -0.821574
vt 0.974311 -0.821574
vt -1.120215 -0.675944
vt -0.370215 -0.675944
vt -0.370215 -0.821574
vt -1.120215 -0.821574
vt 0.224311 -0.675944
vt 0.974311 -0.675944
vt 0.974311 -0.821574
vt 0.224311 -0.821574
vt -0.370215 -0.675944
vt -1.120215 -0.675944
vt -1.120215 -0.821574
vt -0.370215 -0.821574
vt -1.120215 1.132415
vt -0.370215 1.132415
vt -0.370215 0.132415
vt -1.120215 0.132415
vt -1.460935 0.104803
vt -1.709181 0.104803
vt -1.709181 0.056600
vt -1.460935 0.056600
vt -0.830322 0.104803
vt -0.163283 0.104803
vt -0.163283 0.056600
vt -0.830322 0.056600
vt -1.709181 0.104803
vt -1.460935 0.104803
vt -1.460935 0.056600
vt -1.709181 0.056600
vt -0.080322 0.104803
vt -0.830322 0.104803
vt -0.830322 0.056600
vt -0.080322 0.056600
vt -0.422027 -3.432190
vt 0.327973 -3.432190
vt 0.327973 -4.432190
vt -0.422027 -4.432190
vt -0.830322 -2.114580
vt -0.080322 -2.114580
vt -0.163283 -2.445575
vt -0.830322 -2.445575
vn 0.0000 1.0000 0.0000
vn 1.0000 0.0000 0.0000
vn 0.0000 0.0000 -1.0000
vn -1.0000 0.0000 0.0000
vn 0.0000 0.0000 1.0000
vn 0.0000 -1.0000 -0.0000
vn -0.9484 0.0000 -0.3170
usemtl None.001
s 1
f 1/1/1 2/2/1 3/3/1 4/4/1
f 5/5/2 6/6/2 1/7/2 4/8/2
f 6/9/3 7/10/3 2/11/3 1/12/3
f 7/13/4 8/14/4 3/15/4 2/16/4
f 8/17/5 5/18/5 4/19/5 3/20/5
f 5/21/6 8/22/6 7/23/6 6/24/6
f 9/25/1 10/26/1 11/27/1 12/28/1
f 13/29/1 14/30/1 15/31/1 16/32/1
f 17/33/1 18/34/1 19/35/1 20/36/1
f 21/37/2 22/38/2 17/39/2 20/40/2
f 22/41/3 23/42/3 18/43/3 17/44/3
f 23/45/4 24/46/4 19/47/4 18/48/4
f 24/49/5 21/50/5 20/51/5 19/52/5
f 25/53/2 26/54/2 9/55/2 12/56/2
f 26/57/3 27/58/3 10/59/3 9/60/3
f 27/61/4 28/62/4 11/63/4 10/64/4
f 28/65/5 25/66/5 12/67/5 11/68/5
f 25/69/6 28/70/6 27/71/6 26/72/6
f 29/73/2 30/74/2 13/75/2 16/76/2
f 30/77/3 31/78/3 14/79/3 13/80/3
f 31/81/7 32/82/7 15/83/7 14/84/7
f 32/85/5 29/86/5 16/87/5 15/88/5
f 21/89/6 24/90/6 23/91/6 22/92/6
f 29/93/6 32/94/6 31/95/6 30/96/6
