# Blender v2.79 (sub 4) OBJ File: 'a.blend'
# www.blender.org
mtllib a.mtl
o Plane_Plane.001
v -1.000000 0.000000 1.000000
v 1.000000 0.000000 1.000000
v -1.000000 0.000000 -1.000000
v 1.000000 0.000000 -1.000000
v -0.743810 0.539907 -0.743810
v -0.743810 0.539907 0.743810
v 0.743810 0.539907 0.743810
v 0.743810 0.539907 -0.743810
v -1.000000 0.539907 -1.000000
v -1.000000 0.539907 1.000000
v 1.000000 0.539907 1.000000
v 1.000000 0.539907 -1.000000
v -0.743810 0.320998 -0.743810
v -0.743810 0.320998 0.743810
v 0.743810 0.320998 0.743810
v 0.743810 0.320998 -0.743810
vt 0.000000 0.500000
vt 0.456774 0.500000
vt 0.456774 1.000000
vt 0.000000 1.000000
vt 0.896518 0.000000
vt 0.896518 0.371905
vt 0.846522 0.371905
vt 0.846522 0.000000
vt 0.826697 0.371905
vt 0.826697 0.871905
vt 0.703389 0.871905
vt 0.703389 0.371905
vt 0.826697 0.871905
vt 0.950004 0.371905
vt 0.950004 0.871905
vt 0.580081 0.871905
vt 0.580081 0.371905
vt 0.703389 0.371905
vt 0.580081 0.871905
vt 0.456774 0.871905
vt 0.456774 0.371905
vt 0.058510 0.435953
vt 0.398263 0.435953
vt 0.456774 0.500000
vt 0.000000 0.500000
vt 0.058510 0.064048
vt 0.000000 0.000000
vt 0.398263 0.064047
vt 0.456774 0.000000
vt 0.456774 0.371905
vt 0.456774 0.000000
vt 0.796526 0.000000
vt 0.796526 0.371905
vt 0.796527 0.371905
vt 0.796526 0.000000
vt 0.846522 0.000000
vt 0.846522 0.371905
vt 0.896518 0.371905
vt 0.946514 0.000000
vt 0.946514 0.371905
vt 0.950004 0.743810
vt 0.950004 0.371905
vt 1.000000 0.371905
vt 1.000000 0.743810
vn 0.0000 -1.0000 0.0000
vn 0.0000 0.0000 1.0000
vn -1.0000 0.0000 0.0000
vn 0.0000 0.0000 -1.0000
vn 1.0000 0.0000 0.0000
vn 0.0000 1.0000 0.0000
usemtl None
s off
f 1/1/1 3/2/1 4/3/1 2/4/1
f 8/5/2 5/6/2 13/7/2 16/8/2
f 3/9/3 1/10/3 10/11/3 9/12/3
f 4/13/4 3/9/4 9/14/4 12/15/4
f 1/16/2 2/17/2 11/18/2 10/11/2
f 2/17/5 4/19/5 12/20/5 11/21/5
f 6/22/6 5/23/6 9/24/6 10/25/6
f 7/26/6 6/22/6 10/25/6 11/27/6
f 8/28/6 7/26/6 11/27/6 12/29/6
f 5/23/6 8/28/6 12/29/6 9/24/6
f 14/30/6 15/31/6 16/32/6 13/33/6
f 6/34/4 7/35/4 15/36/4 14/37/4
f 7/38/3 8/5/3 16/39/3 15/40/3
f 5/41/5 6/42/5 14/43/5 13/44/5
