# Blender v2.79 (sub 4) OBJ File: 'level1.blend'
# www.blender.org
mtllib a.mtl
o Plane_Plane.001
v 10.000000 0.000000 10.000000
v 10.000000 0.000000 -10.000000
v 2.500000 0.000000 -5.000000
v 2.500000 0.000000 7.500000
v 1.250000 0.000000 0.000000
v -1.250000 0.000000 0.000000
v -10.000000 0.000000 -10.000000
v 1.250000 0.000000 -5.000000
v 1.250000 0.000000 -2.500000
v 2.500000 0.000000 3.750000
v 2.500000 0.000000 1.250000
v 2.500000 0.000000 6.250000
v -1.250000 0.000000 -7.500000
v 3.750000 0.000000 -3.750000
v -6.250000 0.000000 10.000000
v -10.000000 0.000000 10.000000
v 0.625000 0.000000 0.000000
v 8.125000 0.000000 0.000000
v 4.375000 0.000000 -2.500000
v 0.625000 0.000000 -7.500000
v 2.500000 0.000000 8.125000
v 2.500000 0.000000 3.125000
v 2.500000 0.000000 1.875000
v 9.375000 0.000000 7.500000
v -0.625000 0.000000 -7.500000
v 7.500000 0.000000 -8.125000
v 7.500000 0.000000 -1.875000
v 2.500000 0.000000 -8.125000
v 1.875000 0.000000 -7.500000
v 2.500000 0.000000 5.625000
v 6.250000 0.000000 -9.375000
v 6.250000 0.000000 -5.625000
v 5.625000 0.000000 1.250000
v -6.250000 0.000000 9.375000
v 1.250000 0.000000 9.375000
v -3.750000 0.000000 9.375000
v 1.250000 0.000000 -9.375000
v 1.250000 0.000000 -8.125000
v 5.625000 0.000000 -3.750000
v 6.250000 0.000000 -4.375000
v 6.250000 0.000000 -0.625000
v 3.750000 0.000000 -8.125000
v 4.375000 0.000000 1.250000
v -4.375000 0.000000 -10.000000
v 8.125000 0.000000 6.250000
v 9.375000 0.000000 1.250000
v 8.125000 0.000000 -8.125000
v 9.375000 0.000000 1.875000
v 4.375000 0.000000 1.875000
v 4.375000 0.000000 -8.125000
v 0.625000 0.000000 -1.875000
v 8.125000 0.000000 -1.875000
v 8.125000 0.000000 -0.625000
v 5.625000 0.000000 -0.625000
v 0.625000 0.000000 -9.375000
v 1.875000 0.000000 -5.625000
v 0.625000 0.000000 -5.625000
v -9.375000 0.000000 -9.375000
v -9.375000 0.000000 9.375000
v 9.375000 0.000000 9.375000
v 0.625000 0.000000 9.375000
v -0.625000 0.000000 -0.625000
v 8.125000 0.000000 3.125000
v 5.625000 0.000000 1.875000
v -4.375000 0.000000 -9.375000
v 5.625000 0.000000 -5.625000
v -5.625000 0.000000 -10.000000
v 5.625000 0.000000 -9.375000
v 9.375000 0.000000 8.125000
v 4.375000 0.000000 -1.875000
v 4.375000 0.000000 -4.375000
v -5.625000 0.000000 -9.375000
v 9.375000 0.000000 -9.375000
v -10.000000 4.000000 10.000000
v 10.000000 4.000000 10.000000
v -10.000000 4.000000 -10.000000
v 10.000000 4.000000 -10.000000
v -5.000000 0.000000 -26.000000
v 9.375000 4.000000 7.500000
v -5.625000 4.000000 -10.000000
v -3.750000 4.000000 9.375000
v -6.250000 4.000000 9.375000
v 1.250000 4.000000 9.375000
v -4.375000 4.000000 -10.000000
v 1.250000 4.000000 -9.375000
v 9.375000 4.000000 1.250000
v 9.375000 4.000000 1.875000
v 9.375000 4.000000 9.375000
v 0.625000 4.000000 9.375000
v -9.375000 4.000000 9.375000
v -9.375000 4.000000 -9.375000
v -4.375000 4.000000 -9.375000
v 5.625000 4.000000 -9.375000
v -5.625000 4.000000 -9.375000
v 9.375000 4.000000 -9.375000
v 2.500000 4.000000 7.500000
v 2.500000 4.000000 8.125000
v 9.375000 4.000000 8.125000
v 8.125000 4.000000 6.250000
v 7.500000 0.000000 5.625000
v 7.500000 0.000000 3.750000
v 2.500000 4.000000 6.250000
v 2.500000 4.000000 5.625000
v 7.500000 4.000000 3.750000
v 7.500000 4.000000 5.625000
v 8.125000 4.000000 3.125000
v 2.500000 4.000000 3.125000
v 2.500000 4.000000 3.750000
v 2.500000 4.000000 1.875000
v 2.500000 4.000000 1.250000
v 5.625000 4.000000 1.250000
v 4.375000 4.000000 1.250000
v 4.375000 4.000000 1.875000
v 5.625000 4.000000 1.875000
v 8.125000 4.000000 0.000000
v 1.250000 4.000000 0.000000
v 8.125000 4.000000 -0.625000
v 1.250000 4.000000 -2.500000
v 1.250000 4.000000 -5.000000
v 0.625000 4.000000 -7.500000
v 1.250000 4.000000 -8.125000
v 4.375000 4.000000 -2.500000
v 0.625000 4.000000 -1.875000
v 0.625000 4.000000 -9.375000
v 0.625000 4.000000 -5.625000
v 7.500000 4.000000 -1.875000
v 7.500000 4.000000 -8.125000
v 8.125000 4.000000 -8.125000
v 8.125000 4.000000 -1.875000
v 6.250000 4.000000 -4.375000
v 6.250000 4.000000 -0.625000
v 5.625000 4.000000 -0.625000
v 6.250000 4.000000 -9.375000
v 6.250000 4.000000 -5.625000
v 5.625000 4.000000 -5.625000
v 5.625000 4.000000 -3.750000
v 3.750000 4.000000 -8.125000
v 3.750000 4.000000 -3.750000
v 4.375000 4.000000 -8.125000
v 4.375000 4.000000 -4.375000
v 1.875000 4.000000 -7.500000
v 2.500000 4.000000 -5.000000
v 2.500000 4.000000 -8.125000
v 1.875000 4.000000 -5.625000
v 4.375000 4.000000 -1.875000
v 0.625000 4.000000 0.000000
v -1.250000 4.000000 0.000000
v -1.250000 4.000000 -7.500000
v -0.625000 4.000000 -7.500000
v -0.625000 4.000000 -0.625000
v -3.750000 0.000000 26.000000
v -6.250000 0.000000 26.000000
v -3.750000 0.000000 10.000000
v -6.250000 4.000000 10.000000
v -3.750000 4.000000 10.000000
v -6.250000 4.000000 26.000000
v -5.625000 0.000000 -26.000000
v -5.625000 4.000000 -26.000000
v -4.375000 4.000000 -26.000000
v -4.375000 0.000000 -26.000000
v -4.375000 0.000000 -28.000000
v -4.375000 4.000000 -28.000000
v -8.375000 4.000000 -28.000000
v -8.375000 0.000000 -26.000000
v -8.375000 0.000000 -28.000000
v -3.750000 0.000000 28.000000
v -3.750000 4.000000 28.000000
v -7.750000 0.000000 28.000000
v -7.750000 4.000000 28.000000
v -7.750000 0.000000 26.000000
vt 0.000000 0.000000
vt 0.000000 0.000000
vt 0.000000 0.000000
vt 0.000000 0.000000
vt 0.000000 0.000000
vt 0.000000 0.000000
vt 0.000000 0.000000
vt 0.000000 0.000000
vt 6.176991 6.125375
vt -5.189225 6.125372
vt -5.189222 -1.688898
vt -14.282167 -1.688899
vt -14.282167 -3.109676
vt -5.189221 -3.109675
vt -5.189218 -5.240841
vt 6.176998 -5.240820
vt 6.176992 -2.754466
vt 15.269770 -2.754459
vt 15.282167 -2.044185
vt 15.269770 -2.044085
vt 6.176992 -2.044091
vt 1.538065 -0.950020
vt 6.522510 -0.950021
vt 6.522510 1.950020
vt 1.538065 1.950021
vt 2.897459 -0.950020
vt 2.897459 1.950021
vt 0.178672 1.950021
vt 0.178672 -0.950020
vt 8.332239 -0.950021
vt 7.879107 -0.950021
vt 7.879107 1.950020
vt 8.332239 1.950020
vt 7.879107 -0.950021
vt 0.175874 -0.950020
vt 0.175874 1.950021
vt 7.879107 1.950020
vt -2.996045 -0.950020
vt -3.449176 -0.950020
vt -3.449176 1.950021
vt -2.996045 1.950021
vt 3.800925 -0.950021
vt 1.535268 -0.950020
vt 1.535268 1.950021
vt 3.800925 1.950020
vt 5.616247 -0.950021
vt 5.616247 1.950020
vt 0.631803 1.950021
vt 0.631803 -0.950020
vt -5.714833 -0.950019
vt 1.082137 -0.950020
vt 1.082137 1.950021
vt -5.714833 1.950021
vt 4.256853 -0.950021
vt 6.522510 -0.950021
vt 6.522510 1.950020
vt 4.256853 1.950020
vt -5.714833 -0.950019
vt 1.082137 -0.950020
vt 1.082137 1.950021
vt -5.714833 1.950021
vt 4.707189 -0.950021
vt 4.707189 1.950020
vt 6.972844 1.950020
vt 6.972844 -0.950021
vt 2.441531 -0.950020
vt 2.441531 1.950021
vt 5.160320 1.950020
vt 5.160320 -0.950021
vt 6.972844 -0.950021
vt 2.441531 -0.950020
vt 2.441531 1.950021
vt 6.972844 1.950020
vt -7.524561 -0.950019
vt -4.352642 -0.950020
vt -4.352642 1.950021
vt -7.524561 1.950021
vt 5.163115 -0.950021
vt 5.616247 -0.950021
vt 5.616247 1.950020
vt 5.163115 1.950020
vt 1.538065 -0.950020
vt 1.538065 1.950021
vt 5.163115 1.950020
vt 5.163115 -0.950021
vt 2.444329 -0.950020
vt 2.897459 -0.950020
vt 2.897459 1.950021
vt 2.444329 1.950021
vt 7.879107 -0.950021
vt 8.332239 -0.950021
vt 8.332239 1.950020
vt 7.879107 1.950020
vt 0.631803 -0.950020
vt 2.897459 -0.950020
vt 2.897459 1.950021
vt 0.631803 1.950021
vt 5.119722 1.425690
vt 5.119722 -0.423310
vt 12.515721 -0.423310
vt 12.515721 1.425690
vt 8.332239 -0.950021
vt 8.332239 1.950020
vt -6.167964 1.950021
vt -6.167964 -0.950019
vt 1.538065 -0.950020
vt 1.538065 1.950021
vt 5.616247 1.950020
vt 5.616247 -0.950021
vt -4.805773 -0.950019
vt -4.805773 1.950021
vt -7.071430 1.950021
vt -7.071430 -0.950019
vt -4.805773 -0.950019
vt -7.524561 -0.950019
vt -7.524561 1.950021
vt -4.805773 1.950021
vt 8.332239 -0.950021
vt 8.332239 1.950020
vt -6.167964 1.950021
vt -6.167964 -0.950019
vt -4.352642 -0.950020
vt -7.071430 -0.950019
vt -7.071430 1.950021
vt -4.352642 1.950021
vt -4.355439 -0.950020
vt -4.355439 1.950021
vt -0.277257 1.950021
vt -0.277257 -0.950020
vt 6.972844 -0.950021
vt 7.879107 -0.950021
vt 7.879107 1.950020
vt 6.972844 1.950020
vt -2.993248 -0.950020
vt 0.178672 -0.950020
vt 0.178672 1.950021
vt -2.993248 1.950021
vt -4.808571 -0.950019
vt -4.355439 -0.950020
vt -4.355439 1.950021
vt -4.808571 1.950021
vt -1.636651 -0.950020
vt -2.996045 -0.950020
vt -2.996045 1.950021
vt -1.636651 1.950021
vt 3.803722 -0.950021
vt 6.522510 -0.950021
vt 6.522510 1.950020
vt 3.803722 1.950020
vt -3.449176 -0.950020
vt -1.183520 -0.950020
vt -1.183519 1.950021
vt -3.449176 1.950021
vt 5.163115 -0.950021
vt 5.163115 1.950020
vt 1.538065 1.950021
vt 1.538065 -0.950020
vt -2.993248 -0.950020
vt -2.993248 1.950021
vt 6.975641 1.950020
vt 6.975641 -0.950021
vt 5.616247 -0.950021
vt 5.616247 1.950020
vt 1.538065 1.950021
vt 1.538065 -0.950020
vt -1.636651 -0.950020
vt -1.183520 -0.950020
vt -1.183519 1.950021
vt -1.636651 1.950021
vt -0.277257 -0.950020
vt 0.175874 -0.950020
vt 0.175874 1.950021
vt -0.277257 1.950021
vt 0.175874 -0.950020
vt -0.277257 -0.950020
vt -0.277257 1.950021
vt 0.175874 1.950021
vt 1.538065 -0.950020
vt 2.897459 -0.950020
vt 2.897459 1.950021
vt 1.538065 1.950021
vt 1.538065 -0.950020
vt 1.538065 1.950021
vt 2.897459 1.950021
vt 2.897459 -0.950020
vt -0.277257 -0.950020
vt 0.175874 -0.950020
vt 0.175874 1.950021
vt -0.277257 1.950021
vt 3.803722 -0.950021
vt 3.803722 1.950020
vt 6.522510 1.950020
vt 6.522510 -0.950021
vt 1.082137 -0.950020
vt 1.535268 -0.950020
vt 1.535268 1.950021
vt 1.082137 1.950021
vt -0.727591 -0.950020
vt -0.727591 1.950021
vt 3.803722 1.950020
vt 3.803722 -0.950021
vt 0.631803 -0.950020
vt 6.522510 -0.950021
vt 6.522510 1.950020
vt 0.631803 1.950021
vt 4.707189 -0.950021
vt 2.894663 -0.950020
vt 2.894663 1.950021
vt 4.707189 1.950020
vt 0.178672 -0.950020
vt 0.178672 1.950021
vt 1.084935 1.950021
vt 1.084934 -0.950020
vt 6.972844 -0.950021
vt 4.254057 -0.950021
vt 4.254057 1.950020
vt 6.972844 1.950020
vt 3.803722 -0.950021
vt 3.803722 1.950020
vt 0.631803 1.950021
vt 0.631803 -0.950020
vt -3.446380 -0.950020
vt -3.446380 1.950021
vt 0.178672 1.950021
vt 0.178672 -0.950020
vt 0.631803 -0.950020
vt 0.631803 1.950021
vt 1.538065 1.950021
vt 1.538065 -0.950020
vt 6.972844 -0.950021
vt 6.972844 1.950020
vt 2.441531 1.950021
vt 2.441531 -0.950020
vt 5.616247 -0.950021
vt 5.163115 -0.950021
vt 5.163115 1.950020
vt 5.616247 1.950020
vt 4.256853 -0.950021
vt 2.897459 -0.950020
vt 2.897459 1.950021
vt 4.256853 1.950020
vt 7.879107 -0.950021
vt 7.879107 1.950020
vt 5.160320 1.950020
vt 5.160320 -0.950021
vt 3.803722 -0.950021
vt 4.256853 -0.950021
vt 4.256853 1.950020
vt 3.803722 1.950020
vt 7.879107 -0.950021
vt 7.879107 1.950020
vt 5.160320 1.950020
vt 5.160320 -0.950021
vt 4.254057 -0.950021
vt 1.535268 -0.950020
vt 1.535268 1.950021
vt 4.254057 1.950020
vt 7.879107 -0.950021
vt 6.519713 -0.950021
vt 6.519713 1.950020
vt 7.879107 1.950020
vt 1.084934 -0.950020
vt 1.084935 1.950021
vt 0.178672 1.950021
vt 0.178672 -0.950020
vt 0.631803 -0.950020
vt 1.538065 -0.950020
vt 1.538065 1.950021
vt 0.631803 1.950021
vt 2.894663 -0.950020
vt 2.441531 -0.950020
vt 2.441531 1.950021
vt 2.894663 1.950021
vt -5.714833 -0.950019
vt -5.714833 1.950021
vt 7.879107 1.950020
vt 7.879107 -0.950021
vt -1.180723 -0.950020
vt -0.727591 -0.950020
vt -0.727591 1.950021
vt -1.180722 1.950021
vt -5.714833 -0.950019
vt -5.714833 1.950021
vt -6.167964 1.950021
vt -6.167964 -0.950019
vt -5.714833 1.950021
vt -5.714833 -0.950019
vt -6.167964 -0.950019
vt -6.167964 1.950021
vt -2.646079 -0.793109
vt -2.646079 1.795490
vt -13.000476 1.795490
vt -13.000476 -0.793109
vt 1.021749 -0.423310
vt 1.021749 1.425690
vt -0.827252 1.425690
vt -0.827252 -0.423310
vt 1.310654 1.425690
vt 1.310654 -0.423310
vt -0.538345 -0.423310
vt -0.538345 1.425690
vt -3.446380 -0.950020
vt -3.446380 1.950021
vt 6.975641 1.950020
vt 6.975641 -0.950021
vt 6.519713 -0.950021
vt 1.082137 -0.950020
vt 1.082137 1.950021
vt 6.519713 1.950020
vt 5.616247 -0.950021
vt 4.256853 -0.950021
vt 4.256853 1.950020
vt 5.616247 1.950020
vt 1.535268 -0.950020
vt 6.519713 -0.950021
vt 6.519713 1.950020
vt 1.535268 1.950021
vt 1.538065 -0.950020
vt 1.538065 1.950021
vt 6.522510 1.950020
vt 6.522510 -0.950021
vt 3.800925 -0.950021
vt 6.972844 -0.950021
vt 6.972844 1.950020
vt 3.800925 1.950020
vt 2.444329 -0.950020
vt 3.803722 -0.950021
vt 3.803722 1.950020
vt 2.444329 1.950021
vt 5.160320 -0.950021
vt 6.519713 -0.950021
vt 6.519713 1.950020
vt 5.160320 1.950020
vt -1.180723 -0.950020
vt 0.178672 -0.950020
vt 0.178672 1.950021
vt -1.180722 1.950021
vt -11.521276 -0.423310
vt -12.445778 -0.423310
vt -12.445778 1.425690
vt -4.125278 1.425690
vt -4.125278 -0.423310
vt -4.808571 -0.950019
vt -5.714833 -0.950019
vt -5.714833 1.950021
vt -4.808571 1.950021
vt 5.119722 -0.423310
vt 5.119722 1.425690
vt 12.515721 1.425690
vt 13.440223 1.425690
vt 13.440223 -0.423310
vt 12.515721 -0.423310
vt 0.000000 0.000000
vt 0.000000 0.000000
vt 0.000000 0.000000
vt 0.000000 0.000000
vt 0.000000 0.000000
vt 0.000000 0.000000
vt 0.000000 0.000000
vt 0.000000 0.000000
vt 0.000000 0.000000
vt 0.000000 0.000000
vt 0.000000 0.000000
vt 0.000000 0.000000
vt 0.000000 0.000000
vt 0.000000 0.000000
vt 0.000000 0.000000
vt 0.000000 0.000000
vt 0.000000 0.000000
vt 0.000000 0.000000
vt 0.000000 0.000000
vt 0.000000 0.000000
vt 0.000000 0.000000
vt 0.000000 0.000000
vt 0.000000 0.000000
vt 0.000000 0.000000
vt 0.000000 0.000000
vt 0.000000 0.000000
vt 0.000000 0.000000
vt 0.000000 0.000000
vt 0.000000 0.000000
vt 0.000000 0.000000
vt 0.000000 0.000000
vt 0.000000 0.000000
vt 0.000000 0.000000
vt 0.000000 0.000000
vt 0.000000 0.000000
vt 0.000000 0.000000
vt 0.000000 0.000000
vt 0.000000 0.000000
vt 0.000000 0.000000
vt 0.000000 0.000000
vt 0.000000 0.000000
vt 0.000000 0.000000
vt 0.000000 0.000000
vt 0.000000 0.000000
vt 0.000000 0.000000
vt 0.000000 0.000000
vt 0.000000 0.000000
vt 0.000000 0.000000
vt 0.000000 0.000000
vt 0.000000 0.000000
vt 0.000000 0.000000
vt 0.000000 0.000000
vt 0.000000 0.000000
vt 0.000000 0.000000
vt 0.000000 0.000000
vt 0.000000 0.000000
vt 0.000000 0.000000
vt 0.000000 0.000000
vt 0.000000 0.000000
vt 0.000000 0.000000
vt 0.000000 0.000000
vt 0.000000 0.000000
vt 0.000000 0.000000
vt 0.000000 0.000000
vt 0.000000 0.000000
vt 0.000000 0.000000
vt 0.000000 0.000000
vt 0.000000 0.000000
vt 0.000000 0.000000
vt 0.000000 0.000000
vt 0.000000 0.000000
vt 0.000000 0.000000
vt 0.000000 0.000000
vt 0.000000 0.000000
vt 0.000000 0.000000
vt 0.000000 0.000000
vn 0.0000 1.0000 0.0000
vn 0.0000 -1.0000 0.0000
vn 0.0000 0.0000 1.0000
vn -1.0000 0.0000 0.0000
vn 1.0000 0.0000 0.0000
vn 0.0000 0.0000 -1.0000
usemtl None
s off
f 160/1/1 161/2/1 165/3/1 164/4/1
f 166/5/1 151/6/1 170/7/1 168/8/1
f 2/9/2 1/10/2 153/11/2 151/12/2 152/13/2 15/14/2 16/15/2 7/16/2 67/17/2 157/18/2 78/19/2 160/20/2 44/21/2
usemtl None_Stone-2394.jpg
f 21/22/3 69/23/3 98/24/3 97/25/3
f 70/26/3 145/27/3 123/28/3 51/29/3
f 67/30/4 72/31/4 94/32/4 80/33/4
f 73/34/4 46/35/4 86/36/4 95/37/4
f 30/38/4 12/39/4 102/40/4 103/41/4
f 39/42/4 54/43/4 132/44/4 136/45/4
f 18/46/3 115/47/3 116/48/3 5/49/3
f 35/50/5 5/51/5 116/52/5 83/53/5
f 31/54/3 73/55/3 95/56/3 133/57/3
f 61/58/5 17/59/5 146/60/5 89/61/5
f 3/62/4 142/63/4 143/64/4 28/65/4
f 51/66/4 123/67/4 125/68/4 57/69/4
f 47/70/4 52/71/4 129/72/4 128/73/4
f 7/74/3 67/75/3 80/76/3 76/77/3
f 27/78/3 52/79/3 129/80/3 126/81/3
f 10/82/6 108/83/6 104/84/6 101/85/6
f 42/86/3 50/87/3 139/88/3 137/89/3
f 65/90/5 44/91/5 84/92/5 92/93/5
f 9/94/3 19/95/3 122/96/3 118/97/3
f 80/98/5 67/99/5 157/100/5 158/101/5
f 7/102/5 76/103/5 74/104/5 16/105/5
f 22/106/6 107/107/6 106/108/6 63/109/6
f 34/110/3 82/111/3 90/112/3 59/113/3
f 15/114/6 16/115/6 74/116/6 154/117/6
f 2/118/5 77/119/5 75/120/5 1/121/5
f 72/122/6 58/123/6 91/124/6 94/125/6
f 24/126/4 79/127/4 87/128/4 48/129/4
f 38/130/5 37/131/5 85/132/5 121/133/5
f 36/134/3 61/135/3 89/136/3 81/137/3
f 21/138/5 4/139/5 96/140/5 97/141/5
f 101/142/4 100/143/4 105/144/4 104/145/4
f 33/146/3 46/147/3 86/148/3 111/149/3
f 45/150/5 63/151/5 106/152/5 99/153/5
f 100/154/3 105/155/3 103/156/3 30/157/3
f 153/158/6 155/159/6 75/160/6 1/161/6
f 45/162/3 99/163/3 102/164/3 12/165/3
f 10/166/5 22/167/5 107/168/5 108/169/5
f 64/170/5 33/171/5 111/172/5 114/173/5
f 11/174/4 23/175/4 109/176/4 110/177/4
f 23/178/3 49/179/3 113/180/3 109/181/3
f 11/182/6 110/183/6 112/184/6 43/185/6
f 49/186/5 43/187/5 112/188/5 113/189/5
f 64/190/6 114/191/6 87/192/6 48/193/6
f 18/194/5 53/195/5 117/196/5 115/197/5
f 62/198/6 150/199/6 132/200/6 54/201/6
f 35/202/3 60/203/3 88/204/3 83/205/3
f 8/206/4 9/207/4 118/208/4 119/209/4
f 57/210/6 125/211/6 144/212/6 56/213/6
f 50/214/4 71/215/4 140/216/4 139/217/4
f 68/218/3 93/219/3 85/220/3 37/221/3
f 65/222/6 92/223/6 124/224/6 55/225/6
f 38/226/6 121/227/6 143/228/6 28/229/6
f 26/230/5 127/231/5 126/232/5 27/233/5
f 47/234/6 26/235/6 127/236/6 128/237/6
f 40/238/6 71/239/6 140/240/6 130/241/6
f 68/242/5 93/243/5 135/244/5 66/245/5
f 66/246/3 32/247/3 134/248/3 135/249/3
f 31/250/5 133/251/5 134/252/5 32/253/5
f 40/254/4 41/255/4 131/256/4 130/257/4
f 55/258/4 20/259/4 120/260/4 124/261/4
f 29/262/3 141/263/3 120/264/3 20/265/3
f 8/266/3 3/267/3 142/268/3 119/269/3
f 19/270/4 70/271/4 145/272/4 122/273/4
f 59/274/4 90/275/4 91/276/4 58/277/4
f 13/278/3 25/279/3 149/280/3 148/281/3
f 36/282/5 81/283/5 155/284/5 153/285/5
f 82/286/4 34/287/4 15/288/4 154/289/4
f 15/290/5 154/291/5 156/292/5 152/293/5
f 161/294/3 162/295/3 163/296/3 165/297/3
f 167/298/6 166/299/6 168/300/6 169/301/6
f 44/302/6 84/303/6 77/304/6 2/305/6
f 13/306/4 6/307/4 147/308/4 148/309/4
f 53/310/6 41/311/6 131/312/6 117/313/6
f 62/314/5 25/315/5 149/316/5 150/317/5
f 4/318/6 96/319/6 79/320/6 24/321/6
f 14/322/5 42/323/5 137/324/5 138/325/5
f 14/326/3 39/327/3 136/328/3 138/329/3
f 56/330/5 29/331/5 141/332/5 144/333/5
f 6/334/3 17/335/3 146/336/3 147/337/3
f 151/338/4 166/339/4 167/340/4 155/341/4 153/342/4
f 69/343/4 60/344/4 88/345/4 98/346/4
f 44/347/4 84/348/4 159/349/4 162/350/4 161/351/4 160/352/4
usemtl None_NONE
f 68/218/3 31/54/3 133/57/3 93/219/3
f 69/343/5 24/126/5 79/127/5 98/346/5
f 102/353/1 99/354/1 106/355/1 107/356/1 108/357/1 104/358/1 105/359/1 103/360/1
f 37/221/6 55/225/6 124/224/6 85/220/6
f 61/135/3 35/202/3 83/205/3 89/136/3
f 46/35/4 48/129/4 87/128/4 86/36/4
f 110/361/2 112/362/2 113/363/2 109/364/2
f 128/365/1 127/366/1 126/367/1 129/368/1
f 76/369/2 80/370/2 94/371/2 91/372/2 90/373/2 82/374/2 154/375/2 74/376/2
f 122/377/2 145/378/2 123/379/2 125/380/2 144/381/2 141/382/2 120/383/2 124/384/2 92/385/2 84/386/2 77/387/2 75/388/2 155/389/2 81/390/2 89/391/2 146/392/2 147/393/2 148/394/2 149/395/2 150/396/2 132/397/2 136/398/2 138/399/2 137/400/2 139/401/2 140/402/2 130/403/2 131/404/2 117/405/2 115/406/2 116/407/2 83/408/2 88/409/2 98/410/2 97/411/2 96/412/2 79/413/2 87/414/2 114/415/2 111/416/2 86/417/2 95/418/2 133/419/2 134/420/2 135/421/2 93/422/2 85/423/2 121/424/2 143/425/2 142/426/2 119/427/2 118/428/2
l 132 131
