# Blender v2.79 (sub 4) OBJ File: 'maze0.blend'
# www.blender.org
mtllib a.mtl
o Plane
v -8.680000 0.000000 8.680000
v 8.680000 0.000000 8.680000
v -8.680000 0.000000 -8.680000
v 8.680000 0.000000 -8.680000
v 8.103603 0.000000 -8.103603
v -8.670000 0.000000 -8.670000
v -8.670000 0.000000 8.670000
v 8.670000 0.000000 8.670000
v 8.670000 0.000000 -8.670000
v -8.670000 4.372460 -8.670000
v -8.670000 4.372460 8.670000
v 8.670000 4.372460 8.670000
v 8.670000 4.372460 -8.670000
v -8.103603 4.372460 -8.103603
v -8.103603 4.372460 8.103603
v 8.103603 4.372460 8.103603
v 8.103603 4.372460 -8.103603
v 4.824955 0.000000 0.783105
v 4.155018 0.000000 0.980536
v 0.911295 0.000000 -3.582460
v 0.711034 0.000000 3.860126
v -4.356384 0.000000 3.807438
v 0.953337 0.000000 -5.967265
v -8.103603 0.000000 -8.103603
v -8.103603 0.000000 8.103603
v 4.630159 0.000000 8.103603
v 8.103603 0.000000 8.103603
v 3.932711 0.000000 8.103603
v 1.630987 0.000000 -3.549260
v 0.989406 0.000000 -2.735863
v -3.475618 0.000000 3.777325
v -3.684350 0.000000 -3.766369
v 1.683896 0.000000 -5.967830
v 4.630159 3.927778 8.103603
v 1.523189 0.000000 -2.719543
v -2.930449 0.000000 -3.025477
v 8.103603 0.000000 -3.250670
v 8.103603 0.000000 -2.518351
v -0.106505 0.000000 3.925859
v -4.356384 4.372460 3.807438
v -3.475618 4.372460 3.777325
v 8.103603 4.372460 -2.518351
v 1.523189 4.372460 -2.719543
v 0.711034 4.372460 3.860126
v 0.911295 4.372460 -3.582460
v -3.684350 4.372460 -3.766369
v -2.930449 4.372460 -3.025477
v 0.989406 4.372460 -2.735863
v 1.630987 4.372460 -3.549260
v 1.683896 4.372460 -5.967830
v 0.953337 4.372460 -5.967265
v 8.103603 4.372460 -3.250670
v -0.106505 4.372460 3.925859
v 3.932711 4.372460 8.103603
v 4.630159 4.372460 8.103603
v 4.824955 4.372460 0.783105
v 4.155018 4.372460 0.980536
vt 0.817306 1.163974
vt -4.104939 1.163974
vt -4.104939 -0.163974
vt 0.817306 -0.163974
vt 5.212097 1.163974
vt 0.289851 1.163974
vt 0.289851 -0.163974
vt 5.212097 -0.163974
vt 1.556581 -0.163974
vt 5.212097 -0.163974
vt 5.212097 1.163974
vt 1.556581 1.163974
vt -2.721752 1.163974
vt -3.456289 1.163974
vt -3.456289 -0.163974
vt -2.721752 -0.163974
vt 2.288371 1.163974
vt 0.289851 1.163974
vt 0.289851 -0.163974
vt 2.288371 -0.163974
vt 2.783320 1.163974
vt 2.535028 1.163974
vt 2.535028 -0.163974
vt 2.783320 -0.163974
vt 2.239563 1.163974
vt 2.461439 1.163974
vt 2.461439 -0.163974
vt 2.239563 -0.163974
vt -0.471468 1.163974
vt -2.469761 1.163974
vt -2.469761 -0.163974
vt -0.471468 -0.163974
vt 0.289851 1.163974
vt 2.255631 1.163974
vt 2.255631 -0.163974
vt 0.289851 -0.163974
vt -3.456117 1.163974
vt -2.731836 1.163974
vt -2.731836 -0.163974
vt -3.456117 -0.163974
vt 2.474207 1.163974
vt 3.869937 1.163974
vt 3.869937 -0.163974
vt 2.474207 -0.163974
vt -2.787689 1.163974
vt -0.487470 1.163974
vt -0.487470 -0.163974
vt -2.787689 -0.163974
vt -0.496615 1.163974
vt -2.562676 1.163974
vt -2.562676 -0.163974
vt -0.496615 -0.163974
vt 3.640972 1.163974
vt 2.450484 1.163974
vt 2.450484 -0.163974
vt 3.640972 -0.163974
vt 4.074039 1.163974
vt 3.806544 1.163974
vt 3.806544 -0.163974
vt 4.074039 -0.163974
vt -2.474718 1.163974
vt -0.451504 1.163974
vt -0.451504 -0.163974
vt -2.474718 -0.163974
vt 0.289851 1.163974
vt 0.289851 -0.163974
vt 1.344761 -0.163974
vt 1.344761 1.163974
vt 1.489065 1.163974
vt 1.285600 1.163974
vt 1.285600 -0.163974
vt 1.489065 -0.163974
vt 0.817306 1.163974
vt -1.346021 1.163974
vt -1.346021 -0.163974
vt 0.817306 -0.163974
vt -1.405981 1.163974
vt 0.817306 1.163974
vt 0.817306 -0.163974
vt -1.405981 -0.163974
vt -4.104939 1.163974
vt -4.104939 -0.163974
vt -2.631068 -0.163974
vt -2.631068 1.163974
vt 0.817306 1.163974
vt 0.817306 -0.163974
vt -2.408657 -0.163974
vt -2.408657 1.163974
vt 1.341174 -0.075574
vt 0.251199 -0.034849
vt 0.241228 -0.562935
vt 0.067957 -0.563060
vt 0.080506 -0.027497
vt -1.454641 0.038622
vt -1.454641 -1.036000
vt 2.389313 -1.036000
vt 2.389313 2.552883
vt -0.465407 2.552884
vt -0.518133 0.975569
vt -0.677026 0.931851
vt -0.630825 2.552884
vt -1.454641 2.552884
vt -1.454641 0.200785
vt 0.106073 0.156233
vt 0.298696 1.613218
vt 0.492596 1.627774
vt 0.232673 0.152619
vt 1.162367 0.088487
vt 1.291667 1.594883
vt 1.500564 1.601551
vt 0.000000 0.000000
vt 0.000000 0.000000
vt 0.000000 0.000000
vt 0.000000 0.000000
vt 0.000000 0.000000
vt 0.000000 0.000000
vt 0.000000 0.000000
vt 0.000000 0.000000
vt 0.000000 0.000000
vt 0.000000 0.000000
vt 0.000000 0.000000
vt -0.009220 0.500000
vt -0.009797 0.500000
vt 0.990203 0.500000
vt 0.989627 0.500000
vt 0.989627 0.751870
vt -0.009220 0.751870
vt 1.000000 0.516883
vt 0.000000 0.516884
vt 0.032664 0.016884
vt 0.032664 0.161543
vt 0.405941 0.152643
vt 0.402889 0.080548
vt 0.445021 0.080565
vt 0.447445 0.151653
vt 0.712477 0.146171
vt 0.751233 0.371937
vt 0.700439 0.371039
vt 0.668999 0.168256
vt 0.442941 0.176889
vt 0.506142 0.375467
vt 0.458995 0.373507
vt 0.412157 0.177376
vt 0.032664 0.183373
vt 0.032664 0.500000
vt 0.232978 0.500000
vt 0.221744 0.281785
vt 0.260380 0.287670
vt 0.273200 0.500000
vt 0.967336 0.500000
vt 0.000000 0.000000
vt 0.967336 0.016884
vt 1.000000 0.000000
vn 1.0000 0.0000 0.0000
vn 0.0000 0.0000 1.0000
vn 0.9998 0.0000 0.0219
vn -0.0306 0.0000 0.9995
vn 0.0801 0.0000 0.9968
vn -0.0008 0.0000 -1.0000
vn 0.9925 0.0000 0.1225
vn 0.0461 0.0000 -0.9989
vn -0.9998 0.0000 -0.0176
vn 0.0400 0.0000 -0.9992
vn -0.9961 0.0000 -0.0884
vn 0.9968 0.0000 0.0799
vn -0.0737 0.0000 0.9973
vn 0.0342 0.0000 0.9994
vn -0.9867 0.0000 -0.1623
vn 0.2827 0.0000 0.9592
vn 0.9995 0.0000 0.0312
vn -0.9996 0.0000 -0.0266
vn -1.0000 0.0000 0.0000
vn 0.0000 1.0000 0.0000
vn 0.0000 0.0000 -1.0000
vn 1.0000 0.0023 0.0000
vn 0.0000 0.0023 1.0000
usemtl None
s off
f 25/1/1 24/2/1 14/3/1 15/4/1
f 24/5/2 5/6/2 17/7/2 14/8/2
f 54/9/2 15/10/2 25/11/2 28/12/2
f 29/13/3 33/14/3 50/15/3 49/16/3
f 35/17/4 38/18/4 42/19/4 43/20/4
f 39/21/5 21/22/5 44/23/5 53/24/5
f 33/25/6 23/26/6 51/27/6 50/28/6
f 21/29/7 35/30/7 43/31/7 44/32/7
f 37/33/8 29/34/8 49/35/8 52/36/8
f 23/37/9 20/38/9 45/39/9 51/40/9
f 20/41/10 32/42/10 46/43/10 45/44/10
f 32/45/11 22/46/11 40/47/11 46/48/11
f 31/49/12 36/50/12 47/51/12 41/52/12
f 36/53/13 30/54/13 48/55/13 47/56/13
f 22/57/14 31/58/14 41/59/14 40/60/14
f 30/61/15 39/62/15 53/63/15 48/64/15
f 27/65/2 16/66/2 55/67/2 26/68/2
f 19/69/16 18/70/16 56/71/16 57/72/16
f 28/73/17 19/74/17 57/75/17 54/76/17
f 18/77/18 26/78/18 55/79/18 56/80/18
f 5/81/1 17/82/1 52/83/1 37/84/1
f 27/85/19 16/86/19 42/87/19 38/88/19
usemtl None_Stone-0205.jpg
f 32/89/20 20/90/20 23/91/20 33/92/20 29/93/20 37/94/20 5/95/20 24/96/20 25/97/20 28/98/20 19/99/20 18/100/20 26/101/20 27/102/20 38/103/20 35/104/20 21/105/20 39/106/20 30/107/20 36/108/20 31/109/20 22/110/20
usemtl None_NONE
f 7/111/20 6/112/20 3/113/20 1/114/20
f 8/115/20 7/111/20 1/114/20 2/116/20
f 9/117/20 8/115/20 2/116/20 4/118/20
f 6/112/20 9/117/20 4/118/20 3/113/20
f 9/117/21 6/112/21 10/119/21 13/120/21
f 6/112/19 7/111/19 11/121/19 10/119/19
f 8/122/22 2/123/22 4/124/22 9/125/22 13/126/22 12/127/22
f 11/128/20 12/129/20 13/120/20 17/130/20 52/131/20 49/132/20 50/133/20 51/134/20 45/135/20 46/136/20 40/137/20 41/138/20 47/139/20 48/140/20 53/141/20 44/142/20 43/143/20 42/144/20 16/145/20 55/146/20 56/147/20 57/148/20 54/149/20 15/150/20
f 7/111/23 1/114/23 2/116/23 8/115/23 12/151/23 11/121/23
f 11/128/20 15/150/20 14/152/20 17/130/20 13/120/20 10/153/20
